<svg width="463" height="496" viewBox="0 0 463 496" fill="none" xmlns="http://www.w3.org/2000/svg">
<path d="M270.104 385H237.818C236.16 385 234.814 383.654 234.814 381.996V375.423C234.814 372.654 235.709 370.09 237.224 368.007L235.888 357.322H230.603L229.166 368.806C229.151 368.931 229.128 369.053 229.097 369.173C230.151 371.017 230.755 373.151 230.755 375.423V381.996C230.755 383.654 229.409 385 227.751 385H195.466C193.808 385 192.463 383.654 192.463 381.996V375.423C192.463 372.525 193.443 369.852 195.089 367.718C194.944 366.336 194.425 362.963 192.569 357.662C190.761 352.496 185.655 348.074 183.2 346.332C174.258 345.741 166.275 341.579 160.67 335.263L160.987 338.401C162.848 339.501 166.356 341.509 168.652 342.401C173.95 344.463 176.928 348.953 177.036 355.049C177.13 360.215 172.962 363.199 169.447 364.546C168.717 368.11 166.156 372.764 159.73 373.846C153.059 374.985 149.342 370.696 147.743 367.025H145.309C141.057 367.025 135.681 365.184 134.209 356.415C133.198 350.383 135.931 342.932 136.99 340.357L135.008 330.119C134.838 329.239 135.069 328.329 135.64 327.638C136.181 326.982 136.974 326.589 137.818 326.548C137.002 319.278 135.573 301.676 138.256 284.129C140.862 267.091 146.023 256.809 148.585 252.544L145.507 249.648C144.778 248.962 144.438 247.959 144.6 246.972L146.935 232.791C147.115 231.699 147.88 230.795 148.926 230.438C149.976 230.082 151.132 230.328 151.943 231.079L152.338 231.447V158.055C152.338 143.878 156.866 130.739 164.554 120.008C163.908 119.362 163.567 118.434 163.708 117.462C163.825 116.653 166.871 97.5398 192.062 88.4045C217.403 79.2122 229.525 91.5027 230.026 92.0298C230.186 92.195 230.322 92.3767 230.436 92.5689H237.595C237.71 92.3767 237.846 92.1965 238.005 92.0298C238.507 91.5027 250.634 79.2167 275.97 88.4045C301.159 97.5398 304.207 116.653 304.324 117.462C304.529 118.878 303.711 120.206 302.427 120.697C309.819 131.301 314.156 144.18 314.156 158.055V230.992C314.959 230.307 316.066 230.094 317.074 230.438C318.119 230.795 318.885 231.701 319.065 232.791L321.402 246.972C321.564 247.959 321.225 248.962 320.495 249.648L317.808 252.176C320.191 256.477 325.125 266.994 327.744 284.129C330.429 301.676 328.998 319.276 328.182 326.548C329.028 326.587 329.821 326.981 330.361 327.638C330.932 328.329 331.163 329.239 330.994 330.119L329.011 340.357C330.069 342.934 332.8 350.384 331.791 356.415C330.322 365.186 324.945 367.025 320.691 367.025H318.257C316.658 370.696 312.939 374.982 306.271 373.846C299.847 372.762 297.286 368.11 296.555 364.546C293.039 363.2 288.872 360.215 288.964 355.047C289.073 348.953 292.051 344.463 297.348 342.401C299.503 341.563 302.929 339.634 305.013 338.403L305.27 335.871C299.701 341.844 291.955 345.756 283.308 346.332C281.486 347.643 275.897 352.024 273.923 357.663C271.432 364.782 271.346 368.422 271.346 368.458C271.343 368.616 271.328 368.77 271.304 368.922C272.449 370.823 273.108 373.049 273.108 375.425V381.998C273.108 383.656 271.762 385 270.104 385ZM240.821 378.993H267.101V375.423C267.101 373.8 266.514 372.31 265.542 371.155C265.269 371.027 265.013 370.861 264.788 370.654C263.478 369.461 261.792 368.805 260.039 368.805H247.883C246.13 368.805 244.444 369.463 243.134 370.654C242.909 370.861 242.653 371.027 242.38 371.155C241.408 372.31 240.821 373.8 240.821 375.423V378.993ZM198.47 378.993H224.748V375.423C224.748 373.8 224.161 372.31 223.189 371.155C222.916 371.029 222.66 370.859 222.434 370.654C221.125 369.461 219.44 368.805 217.686 368.805H205.531C203.777 368.805 202.092 369.463 200.784 370.654C200.557 370.859 200.302 371.029 200.029 371.155C199.057 372.31 198.47 373.8 198.47 375.423V378.993V378.993ZM302.469 363.526C302.799 365.038 303.866 367.351 307.27 367.926C311.852 368.691 313.047 363.929 313.166 363.382C313.468 362.003 314.69 361.021 316.101 361.021H320.691C322.741 361.021 325.002 360.589 325.865 355.424C326.622 350.911 324.165 344.159 323.154 341.94C322.896 341.372 322.818 340.734 322.937 340.123L324.402 332.554H311.642L310.837 340.505C310.742 341.437 310.221 342.27 309.425 342.76C309.176 342.914 303.268 346.547 299.525 348.002C296.567 349.154 295.035 351.56 294.971 355.158C294.936 357.1 297.153 358.303 298.648 358.892L302.573 355.559C303.839 354.485 305.732 354.64 306.805 355.905C307.878 357.169 307.724 359.064 306.459 360.137L302.469 363.526ZM141.598 332.552L143.063 340.121C143.182 340.732 143.104 341.37 142.846 341.938C141.835 344.159 139.378 350.913 140.133 355.423C140.998 360.586 143.259 361.02 145.307 361.02H149.898C151.308 361.02 152.531 362.002 152.832 363.38C153.037 364.253 154.307 368.674 158.73 367.925C162.136 367.35 163.198 364.999 163.528 363.522L159.541 360.135C158.275 359.061 158.122 357.166 159.195 355.903C160.271 354.634 162.166 354.485 163.427 355.558L167.352 358.889C168.846 358.298 171.064 357.097 171.028 355.157C170.965 351.559 169.431 349.153 166.473 348.001C162.732 346.546 156.823 342.911 156.573 342.758C155.777 342.269 155.256 341.434 155.162 340.504L154.358 332.552H141.598V332.552ZM205.103 362.784H218.117C220.122 362.784 222.019 363.254 223.706 364.088L224.975 353.945C225.162 352.442 226.44 351.314 227.954 351.314H238.542C240.057 351.314 241.333 352.442 241.521 353.945L242.74 363.696C244.199 363.107 245.789 362.784 247.456 362.784H260.469C262.414 362.784 264.258 363.226 265.907 364.014C266.317 361.955 267.029 359.18 268.254 355.676C269.537 352.011 271.866 348.851 274.162 346.404H192.334C194.628 348.851 196.957 352.009 198.241 355.676C199.396 358.976 200.092 361.629 200.514 363.646C201.936 363.091 203.483 362.784 205.103 362.784ZM165.745 331.914C170.681 337.137 177.669 340.399 185.406 340.399H281.088C288.741 340.399 295.66 337.208 300.587 332.085C297.39 330.462 293.096 327.062 290.115 319.996C289.055 317.479 288.393 313.873 288.01 309.748C288.002 309.697 287.998 309.647 287.995 309.596C287.11 299.892 287.746 287.377 288.337 279.446L282.829 284.185C282.652 284.339 282.458 284.47 282.252 284.576V284.578C282.249 284.578 282.248 284.579 282.245 284.581C282.243 284.581 282.243 284.586 282.237 284.584C282.237 284.589 282.236 284.585 282.23 284.588C282.23 284.588 282.234 284.589 282.222 284.593H282.221C282.219 284.595 282.216 284.596 282.215 284.596L282.213 284.598C282.21 284.598 282.209 284.599 282.207 284.601C282.207 284.599 282.204 284.604 282.2 284.604C282.2 284.604 282.195 284.605 282.192 284.608C282.189 284.608 282.191 284.611 282.185 284.611C282.183 284.614 282.182 284.613 282.177 284.616C282.174 284.614 282.171 284.617 282.17 284.619C282.168 284.62 282.167 284.62 282.164 284.622C282.164 284.622 282.159 284.623 282.156 284.626C282.155 284.626 282.155 284.626 282.155 284.626C282.152 284.628 282.149 284.629 282.147 284.629C282.147 284.629 282.147 284.629 282.145 284.631C281.953 284.722 281.752 284.791 281.546 284.841C281.518 284.847 281.489 284.854 281.461 284.859C281.461 284.86 281.461 284.86 281.461 284.86C281.456 284.862 281.452 284.86 281.452 284.862C281.449 284.862 281.447 284.862 281.444 284.863C281.444 284.863 281.441 284.865 281.435 284.865H281.434C281.428 284.865 281.425 284.866 281.425 284.866C281.422 284.869 281.419 284.868 281.416 284.868C281.413 284.871 281.41 284.868 281.407 284.871C281.404 284.871 281.401 284.869 281.398 284.872C281.395 284.872 281.393 284.871 281.39 284.874C281.389 284.874 281.387 284.874 281.384 284.874C281.384 284.872 281.381 284.875 281.377 284.875C281.374 284.875 281.371 284.877 281.368 284.877C281.365 284.877 281.366 284.878 281.36 284.878C281.357 284.878 281.354 284.88 281.351 284.88C281.35 284.88 281.347 284.881 281.342 284.881C281.339 284.881 281.338 284.883 281.335 284.883C281.332 284.883 281.329 284.884 281.326 284.884C281.323 284.884 281.32 284.886 281.317 284.886C281.314 284.886 281.312 284.884 281.309 284.887C281.308 284.887 281.306 284.887 281.303 284.887H281.301C281.298 284.889 281.297 284.889 281.295 284.889H281.294C281.28 284.89 281.267 284.893 281.255 284.895C281.252 284.895 281.25 284.895 281.247 284.896H281.246C281.243 284.896 281.241 284.896 281.238 284.896C281.237 284.896 281.234 284.898 281.231 284.898C281.228 284.898 281.228 284.896 281.222 284.899H281.22C281.214 284.899 281.214 284.898 281.211 284.901C281.208 284.901 281.205 284.901 281.202 284.901C281.201 284.901 281.199 284.902 281.196 284.902H281.195C281.189 284.902 281.189 284.901 281.186 284.904C281.183 284.904 281.18 284.904 281.177 284.904C281.177 284.904 281.174 284.904 281.171 284.905H281.169C281.166 284.905 281.165 284.905 281.162 284.905C281.162 284.905 281.157 284.907 281.154 284.907C281.151 284.907 281.148 284.907 281.145 284.907H281.144C281.141 284.908 281.139 284.908 281.136 284.908H281.135C281.132 284.908 281.129 284.907 281.126 284.91C281.123 284.91 281.12 284.91 281.117 284.91C281.115 284.91 281.114 284.91 281.111 284.91C281.111 284.908 281.108 284.911 281.102 284.911C281.096 284.911 281.091 284.913 281.085 284.913C281.067 284.916 281.043 284.917 281.036 284.916C281.033 284.916 281.028 284.919 281.027 284.917C281.024 284.917 281.021 284.917 281.018 284.917C281.016 284.917 281.015 284.917 281.012 284.917H281.01C281.004 284.917 281.001 284.917 281.001 284.917C280.995 284.92 280.995 284.919 280.992 284.919C280.991 284.919 280.989 284.919 280.986 284.919C280.986 284.919 280.982 284.919 280.979 284.919C280.976 284.919 280.973 284.919 280.97 284.919C280.965 284.919 280.964 284.92 280.961 284.92C280.958 284.92 280.955 284.92 280.952 284.92C280.952 284.92 280.947 284.92 280.944 284.92C280.941 284.92 280.938 284.92 280.935 284.92C280.932 284.92 280.929 284.92 280.926 284.92C280.925 284.92 280.923 284.92 280.923 284.92C280.92 284.92 280.916 284.923 280.914 284.922C280.911 284.922 280.908 284.922 280.905 284.922C280.902 284.922 280.899 284.922 280.896 284.922C280.893 284.922 280.89 284.922 280.887 284.922C280.884 284.922 280.881 284.922 280.878 284.922C280.875 284.922 280.872 284.922 280.869 284.922C280.863 284.922 280.861 284.922 280.86 284.922C280.858 284.922 280.857 284.922 280.857 284.922C280.851 284.922 280.849 284.922 280.845 284.922C280.843 284.922 280.842 284.922 280.839 284.922C280.839 284.922 280.834 284.922 280.831 284.922C280.828 284.922 280.825 284.922 280.822 284.922C280.819 284.922 280.818 284.922 280.815 284.922C280.813 284.922 280.812 284.922 280.809 284.922C280.809 284.922 280.804 284.922 280.801 284.922C280.798 284.922 280.795 284.922 280.792 284.922C280.789 284.922 280.788 284.922 280.785 284.922C280.782 284.922 280.779 284.92 280.776 284.92C280.773 284.92 280.77 284.92 280.767 284.92C280.767 284.92 280.762 284.92 280.759 284.92C280.756 284.92 280.753 284.92 280.75 284.92C280.741 284.92 280.723 284.92 280.726 284.919C280.72 284.919 280.72 284.919 280.717 284.919C280.716 284.919 280.713 284.919 280.711 284.919H280.71C280.704 284.919 280.701 284.919 280.701 284.919C280.699 284.919 280.696 284.919 280.695 284.917C280.695 284.917 280.69 284.917 280.687 284.917C280.686 284.917 280.684 284.917 280.684 284.917C280.678 284.917 280.678 284.917 280.675 284.917C280.674 284.917 280.672 284.917 280.669 284.917C280.669 284.917 280.665 284.916 280.662 284.916C280.659 284.916 280.659 284.916 280.653 284.916C280.654 284.917 280.633 284.916 280.621 284.913H280.62C280.618 284.913 280.615 284.913 280.614 284.913H280.612C280.606 284.913 280.606 284.913 280.603 284.913C280.602 284.911 280.599 284.911 280.597 284.911C280.597 284.911 280.593 284.911 280.59 284.911C280.588 284.911 280.587 284.911 280.587 284.911C280.584 284.908 280.581 284.91 280.578 284.91C280.576 284.91 280.575 284.91 280.572 284.91H280.57C280.564 284.91 280.563 284.908 280.563 284.908C280.56 284.908 280.558 284.908 280.555 284.908C280.56 284.908 280.525 284.905 280.509 284.902C280.509 284.902 280.504 284.902 280.501 284.902C280.5 284.902 280.5 284.902 280.5 284.902C280.494 284.902 280.491 284.901 280.491 284.901C280.489 284.901 280.486 284.899 280.482 284.899C280.479 284.899 280.474 284.899 280.474 284.899C280.468 284.899 280.468 284.898 280.465 284.898C280.464 284.898 280.462 284.898 280.459 284.896C280.459 284.896 280.455 284.896 280.452 284.896C280.449 284.896 280.444 284.895 280.442 284.895H280.441C280.432 284.893 280.421 284.892 280.412 284.89C280.412 284.89 280.408 284.89 280.405 284.89C280.402 284.887 280.4 284.889 280.397 284.889C280.394 284.889 280.391 284.887 280.388 284.887C280.385 284.887 280.384 284.886 280.379 284.886C280.376 284.886 280.373 284.884 280.372 284.884C280.37 284.884 280.367 284.884 280.363 284.883C280.361 284.883 280.36 284.883 280.357 284.883L280.355 284.881C280.352 284.881 280.351 284.881 280.348 284.881C280.351 284.883 280.337 284.88 280.328 284.877C280.325 284.877 280.322 284.878 280.319 284.875C280.318 284.875 280.316 284.875 280.313 284.875C280.313 284.875 280.307 284.874 280.304 284.874C280.301 284.871 280.3 284.874 280.294 284.871C280.292 284.871 280.291 284.871 280.289 284.871C279.393 284.706 278.619 284.141 278.188 283.336L271.779 271.361C271.777 271.358 271.774 271.353 271.773 271.349C271.773 271.347 271.771 271.347 271.771 271.347C271.771 271.341 271.768 271.34 271.768 271.34C271.765 271.332 271.764 271.332 271.764 271.332C271.761 271.326 271.762 271.325 271.759 271.325C271.759 271.32 271.756 271.317 271.756 271.317C271.755 271.314 271.753 271.313 271.753 271.31C271.752 271.31 271.752 271.31 271.752 271.31C271.75 271.307 271.75 271.305 271.749 271.302C271.747 271.299 271.746 271.298 271.744 271.295C271.743 271.292 271.743 271.29 271.741 271.287C271.74 271.284 271.738 271.283 271.737 271.28C271.445 270.693 271.361 270.047 271.466 269.434C271.466 269.431 271.466 269.43 271.466 269.427C271.468 269.427 271.468 269.425 271.468 269.425C271.468 269.424 271.468 269.421 271.468 269.419C271.468 269.419 271.469 269.415 271.469 269.412C271.469 269.409 271.471 269.407 271.471 269.404C271.471 269.401 271.472 269.4 271.472 269.397C271.472 269.395 271.474 269.392 271.474 269.391V269.389C271.525 269.113 271.617 268.845 271.743 268.593V268.592C271.744 268.59 271.746 268.587 271.747 268.586V268.584C271.749 268.581 271.753 268.577 271.752 268.577C271.752 268.574 271.755 268.571 271.755 268.568C271.758 268.566 271.759 268.565 271.759 268.56L271.761 268.559C271.762 268.556 271.762 268.554 271.764 268.553C271.764 268.553 271.764 268.553 271.764 268.551C271.932 268.23 272.16 267.935 272.444 267.686C272.444 267.683 272.447 267.682 272.45 267.682C272.45 267.68 272.45 267.68 272.45 267.68L280.414 260.721C273.297 261.828 264.381 263.002 257.524 263.205C244.493 263.595 234.164 263.6 234.062 263.6C233.679 263.6 233.314 263.528 232.976 263.397C232.638 263.528 232.273 263.6 231.89 263.6C231.788 263.6 221.459 263.595 208.427 263.205C201.566 263.001 192.647 261.826 185.529 260.721L193.5 267.679C193.518 267.695 193.535 267.71 193.551 267.725C193.553 267.725 193.556 267.728 193.556 267.728C193.843 267.992 194.071 268.305 194.233 268.641C194.235 268.644 194.235 268.647 194.236 268.649C194.343 268.874 194.422 269.114 194.471 269.358C194.471 269.364 194.472 269.367 194.472 269.367C194.472 269.37 194.474 269.373 194.474 269.376C194.477 269.379 194.475 269.382 194.475 269.385C194.478 269.388 194.477 269.389 194.477 269.392C194.478 269.394 194.478 269.395 194.478 269.395C194.478 269.4 194.48 269.403 194.48 269.403C194.478 269.41 194.481 269.41 194.481 269.41C194.481 269.413 194.481 269.415 194.481 269.418H194.483C194.588 270.02 194.513 270.655 194.235 271.236C194.233 271.239 194.233 271.241 194.232 271.244C194.23 271.247 194.229 271.248 194.229 271.251C194.226 271.251 194.227 271.253 194.224 271.259V271.26C194.223 271.262 194.221 271.263 194.221 271.266L194.22 271.268C194.22 271.269 194.218 271.272 194.217 271.274V271.275C194.215 271.277 194.214 271.28 194.214 271.281L194.212 271.283C194.212 271.284 194.211 271.287 194.209 271.289C194.209 271.289 194.209 271.29 194.208 271.29C194.208 271.293 194.206 271.295 194.206 271.296C194.206 271.296 194.205 271.301 194.202 271.304C194.202 271.304 194.199 271.307 194.199 271.311C194.196 271.311 194.197 271.316 194.194 271.319C194.194 271.319 194.191 271.323 194.191 271.326C194.19 271.329 194.187 271.329 194.187 271.334C194.185 271.334 194.185 271.338 194.182 271.341C194.182 271.341 194.178 271.346 194.179 271.349C194.178 271.35 194.178 271.352 194.176 271.353C194.176 271.353 194.173 271.358 194.17 271.364L187.761 283.338C187.758 283.341 187.756 283.344 187.755 283.347C187.755 283.35 187.752 283.351 187.75 283.357C187.749 283.357 187.749 283.359 187.747 283.36C187.746 283.365 187.744 283.366 187.741 283.371C187.741 283.374 187.738 283.378 187.737 283.381C187.734 283.384 187.734 283.387 187.731 283.39C187.731 283.392 187.729 283.393 187.725 283.401C187.726 283.404 187.72 283.408 187.72 283.41C187.717 283.411 187.719 283.414 187.714 283.419C187.714 283.42 187.71 283.422 187.71 283.429C187.707 283.432 187.707 283.435 187.704 283.438C187.701 283.441 187.701 283.444 187.698 283.447C187.698 283.449 187.696 283.453 187.692 283.458C187.692 283.459 187.69 283.459 187.69 283.461C187.687 283.467 187.686 283.468 187.684 283.471C187.681 283.474 187.681 283.477 187.678 283.48C187.677 283.482 187.677 283.483 187.675 283.486C187.672 283.486 187.674 283.491 187.669 283.495C187.669 283.497 187.668 283.497 187.668 283.498C187.666 283.503 187.662 283.507 187.662 283.507C187.66 283.512 187.656 283.513 187.656 283.518C187.654 283.519 187.652 283.521 187.651 283.524C187.651 283.524 187.646 283.527 187.646 283.533C187.643 283.533 187.643 283.539 187.64 283.542C187.637 283.545 187.639 283.548 187.634 283.551C187.631 283.554 187.633 283.555 187.628 283.56C187.624 283.563 187.625 283.566 187.622 283.569C187.621 283.57 187.621 283.572 187.621 283.572C187.618 283.578 187.615 283.581 187.615 283.581C187.612 283.587 187.609 283.59 187.609 283.59C187.607 283.593 187.606 283.594 187.604 283.597C187.603 283.597 187.603 283.599 187.603 283.599C187.601 283.602 187.6 283.603 187.598 283.606C187.597 283.606 187.597 283.608 187.597 283.608C187.595 283.611 187.594 283.612 187.592 283.615C187.591 283.615 187.591 283.617 187.591 283.617C187.589 283.62 187.588 283.621 187.585 283.624V283.626C187.582 283.629 187.58 283.63 187.579 283.633C187.579 283.635 187.576 283.639 187.573 283.642C187.573 283.642 187.57 283.645 187.567 283.651C187.567 283.651 187.564 283.654 187.561 283.66H187.559C187.556 283.666 187.553 283.669 187.553 283.669C187.55 283.672 187.547 283.677 187.547 283.678C187.546 283.681 187.543 283.684 187.541 283.686V283.687C187.54 283.69 187.537 283.692 187.535 283.695C187.537 283.696 187.532 283.699 187.529 283.704H187.528C187.526 283.707 187.525 283.71 187.522 283.713C187.52 283.716 187.517 283.719 187.516 283.722C187.282 284.037 186.987 284.302 186.655 284.503C186.652 284.504 186.649 284.506 186.646 284.509C186.643 284.51 186.64 284.512 186.637 284.513C186.633 284.516 186.627 284.521 186.627 284.519C186.624 284.521 186.621 284.522 186.618 284.524C186.615 284.527 186.612 284.528 186.609 284.53C186.606 284.531 186.603 284.533 186.6 284.534V284.536C186.597 284.537 186.594 284.539 186.591 284.54C186.586 284.542 186.585 284.545 186.58 284.546C186.577 284.548 186.576 284.549 186.573 284.551H186.571C186.568 284.552 186.565 284.554 186.562 284.555V284.557C186.559 284.558 186.556 284.56 186.553 284.561C186.55 284.563 186.547 284.564 186.544 284.566C186.544 284.567 186.541 284.57 186.535 284.572H186.534C186.529 284.575 186.523 284.575 186.525 284.576C186.522 284.578 186.519 284.579 186.516 284.581V284.582C186.513 284.584 186.51 284.586 186.507 284.587C186.508 284.587 186.502 284.59 186.498 284.592C186.496 284.592 186.496 284.592 186.496 284.592C186.493 284.593 186.49 284.595 186.487 284.596V284.598C186.484 284.599 186.481 284.601 186.478 284.602H186.477C186.472 284.605 186.469 284.607 186.468 284.607C186.465 284.608 186.462 284.61 186.459 284.611C186.456 284.613 186.453 284.614 186.45 284.616L186.448 284.617C186.445 284.619 186.442 284.62 186.439 284.622C186.436 284.623 186.433 284.625 186.43 284.626C186.426 284.629 186.42 284.631 186.42 284.631C186.417 284.632 186.414 284.634 186.411 284.635C186.408 284.637 186.405 284.638 186.402 284.64C186.399 284.641 186.394 284.643 186.391 284.644C186.335 284.671 186.278 284.697 186.22 284.721C186.221 284.722 186.214 284.722 186.209 284.724C186.206 284.725 186.203 284.727 186.2 284.728C186.202 284.728 186.197 284.73 186.191 284.731C186.188 284.731 186.185 284.733 186.182 284.736C186.181 284.736 186.179 284.736 186.179 284.736C186.173 284.737 186.172 284.739 186.169 284.74C186.164 284.74 186.163 284.74 186.158 284.745C186.155 284.745 186.151 284.748 186.148 284.748C186.145 284.751 186.142 284.748 186.137 284.752C186.134 284.752 186.131 284.755 186.128 284.755C186.122 284.76 186.119 284.758 186.118 284.76C186.115 284.76 186.112 284.763 186.107 284.763C186.104 284.761 186.101 284.766 186.097 284.766C186.094 284.767 186.091 284.766 186.086 284.77C186.083 284.77 186.082 284.773 186.076 284.773C186.073 284.776 186.07 284.775 186.067 284.778C186.064 284.778 186.059 284.778 186.056 284.781C186.05 284.779 186.047 284.784 186.046 284.784C186.041 284.788 186.038 284.787 186.035 284.787C186.032 284.791 186.028 284.788 186.025 284.791C186.022 284.79 186.017 284.794 186.014 284.794C186.011 284.794 186.01 284.797 186.004 284.797C186.002 284.797 186.001 284.799 186.001 284.799C185.996 284.799 185.995 284.8 185.99 284.802C185.987 284.803 185.984 284.803 185.98 284.805C185.977 284.808 185.974 284.809 185.969 284.808C185.965 284.809 185.963 284.811 185.958 284.811C185.954 284.812 185.952 284.811 185.948 284.815C185.942 284.815 185.942 284.812 185.937 284.818C185.933 284.817 185.93 284.815 185.927 284.821C185.924 284.82 185.919 284.82 185.916 284.824C185.91 284.824 185.906 284.821 185.907 284.827C185.903 284.827 185.9 284.829 185.897 284.829C185.892 284.83 185.889 284.832 185.886 284.832C185.882 284.833 185.879 284.835 185.876 284.835C185.871 284.836 185.868 284.836 185.865 284.838C185.861 284.839 185.858 284.839 185.855 284.841C185.784 284.859 185.714 284.874 185.642 284.887C185.481 284.919 185.317 284.934 185.155 284.938C185.152 284.938 185.151 284.938 185.148 284.938C185.145 284.938 185.142 284.938 185.14 284.938H185.139C185.136 284.938 185.134 284.938 185.131 284.938C185.128 284.938 185.125 284.938 185.124 284.938H185.122C185.119 284.938 185.118 284.938 185.115 284.938C185.102 284.94 185.086 284.938 185.074 284.938C185.071 284.938 185.068 284.938 185.065 284.938H185.063C185.06 284.938 185.054 284.938 185.054 284.938C185.048 284.938 185.045 284.938 185.045 284.938C185.039 284.938 185.038 284.938 185.035 284.938C185.032 284.938 185.027 284.938 185.027 284.938C185.026 284.938 185.024 284.937 185.017 284.937C185.017 284.937 185.012 284.937 185.009 284.937C185.006 284.937 185.003 284.937 185 284.937C184.997 284.937 184.994 284.937 184.991 284.937C184.99 284.937 184.988 284.937 184.988 284.937C184.982 284.937 184.982 284.937 184.979 284.937C184.978 284.937 184.99 284.935 184.97 284.935C184.967 284.935 184.964 284.935 184.961 284.935C184.958 284.935 184.954 284.935 184.954 284.935C184.948 284.935 184.948 284.935 184.945 284.935C184.943 284.935 184.94 284.935 184.939 284.934C184.939 284.934 184.936 284.934 184.93 284.934H184.928C184.922 284.934 184.922 284.934 184.919 284.934C184.916 284.934 184.912 284.935 184.912 284.932C184.909 284.932 184.907 284.932 184.904 284.932C184.907 284.932 184.873 284.931 184.855 284.929C184.849 284.929 184.844 284.928 184.838 284.928C184.834 284.928 184.829 284.926 184.829 284.926C184.823 284.926 184.823 284.926 184.82 284.926C184.817 284.925 184.813 284.926 184.811 284.925C184.81 284.925 184.808 284.925 184.805 284.925H184.804C184.801 284.925 184.799 284.925 184.796 284.923H184.795C184.792 284.923 184.789 284.923 184.786 284.923C184.784 284.923 184.781 284.922 184.78 284.922C184.78 284.922 184.775 284.922 184.772 284.922C184.771 284.922 184.769 284.922 184.769 284.922C184.763 284.919 184.763 284.92 184.76 284.92C184.759 284.922 184.757 284.919 184.751 284.919C184.75 284.919 184.748 284.919 184.745 284.919H184.744C184.738 284.919 184.735 284.917 184.735 284.917C184.732 284.917 184.729 284.916 184.726 284.916C184.724 284.916 184.723 284.916 184.72 284.916C184.72 284.916 184.715 284.914 184.712 284.914C184.711 284.914 184.709 284.914 184.709 284.914C184.705 284.914 184.702 284.913 184.7 284.913C184.699 284.913 184.696 284.913 184.694 284.913C184.694 284.913 184.689 284.911 184.686 284.911C184.682 284.913 184.68 284.91 184.677 284.91C184.671 284.91 184.664 284.91 184.655 284.907C184.652 284.907 184.649 284.908 184.649 284.905C184.646 284.905 184.643 284.905 184.64 284.905C184.638 284.904 184.637 284.904 184.634 284.904C184.634 284.904 184.629 284.902 184.626 284.902C184.625 284.902 184.623 284.902 184.623 284.902C184.62 284.902 184.619 284.899 184.614 284.901C184.611 284.901 184.608 284.899 184.605 284.899C184.604 284.899 184.602 284.899 184.599 284.898C184.599 284.898 184.595 284.898 184.592 284.898C184.589 284.895 184.586 284.896 184.583 284.896C184.58 284.893 184.577 284.895 184.574 284.895C184.574 284.893 184.572 284.893 184.572 284.893C184.569 284.893 184.563 284.892 184.563 284.892C184.56 284.892 184.571 284.892 184.554 284.89C184.551 284.89 184.548 284.889 184.545 284.889C184.544 284.889 184.541 284.889 184.539 284.887H184.538C184.535 284.887 184.533 284.887 184.53 284.886H184.529C184.526 284.886 184.524 284.886 184.521 284.884C184.521 284.884 184.518 284.883 184.512 284.883C184.173 284.818 183.849 284.695 183.548 284.518C183.545 284.516 183.544 284.515 183.541 284.513C183.538 284.512 183.536 284.51 183.533 284.509C183.533 284.507 183.532 284.507 183.526 284.504C183.526 284.504 183.524 284.504 183.52 284.5C183.517 284.5 183.517 284.5 183.512 284.495C183.509 284.495 183.511 284.497 183.505 284.491C183.503 284.491 183.502 284.489 183.502 284.489C183.499 284.488 183.494 284.483 183.494 284.485C183.493 284.483 183.491 284.48 183.487 284.48C183.485 284.479 183.484 284.476 183.479 284.476C183.478 284.473 183.478 284.471 183.472 284.471C183.469 284.47 183.47 284.471 183.464 284.465C183.461 284.465 183.461 284.465 183.457 284.461H183.455C183.454 284.459 183.451 284.458 183.449 284.456C183.333 284.381 183.222 284.299 183.114 284.207L177.603 279.464C178.196 287.41 178.83 299.953 177.939 309.662C177.938 309.68 177.936 309.698 177.935 309.716C177.552 313.863 176.888 317.488 175.823 320.012C173.007 326.821 168.901 330.227 165.745 331.914ZM294.257 311.711C294.579 314.145 295.032 316.193 295.651 317.662C298.314 323.977 302.076 326.299 304.134 327.131C304.25 327.045 304.372 326.969 304.499 326.901C306.82 322.912 308.149 318.279 308.149 313.341V308.402L294.257 311.711ZM158.345 308.516V313.34C158.345 318.338 159.708 323.023 162.079 327.045C164.162 326.15 167.771 323.779 170.351 317.662C170.969 316.193 171.423 314.145 171.744 311.711L158.345 308.516ZM311.405 326.545H322.13C322.874 320.059 324.444 302.269 321.809 285.038C319.846 272.208 316.5 263.313 314.156 258.28V313.34C314.156 318.031 313.172 322.498 311.405 326.545ZM143.871 326.545H155.09C153.32 322.499 152.338 318.031 152.338 313.34V304.78C152.337 304.738 152.337 304.694 152.338 304.654V258.184C149.874 262.974 146.214 271.831 144.193 285.039C141.554 302.293 143.126 320.062 143.871 326.545ZM158.345 302.341L172.259 305.657C172.785 294.901 171.843 280.909 171.159 273.776L158.347 261.724V302.341H158.345ZM294.844 273.777C294.16 280.909 293.218 294.901 293.744 305.658L308.149 302.225V261.263L294.844 273.777ZM157.399 252.589L184.311 277.099L187.732 270.709L172.139 258.025C172.079 257.977 172.024 257.928 171.968 257.875L153.329 240.564C153.307 240.543 153.287 240.525 153.266 240.504L151.954 239.285L150.788 246.368L157.399 252.589ZM278.269 270.709L281.689 277.098L309.086 252.132L315.213 246.368L314.046 239.285L313.216 240.056C313.202 240.07 313.187 240.083 313.174 240.096L294.031 257.876C293.994 257.911 293.957 257.944 293.919 257.977C293.916 257.977 293.918 257.977 293.913 257.982C293.894 257.998 293.876 258.013 293.856 258.028L278.269 270.709ZM176.904 253.17C182.745 254.224 198.384 256.896 208.631 257.202C221.567 257.59 231.814 257.594 231.916 257.594C232.299 257.594 232.664 257.666 233.002 257.797C233.339 257.666 233.704 257.594 234.087 257.594C234.189 257.594 244.436 257.59 257.371 257.202C267.607 256.897 283.227 254.23 289.079 253.174L308.149 236.511V158.052C308.149 136.56 296.69 117.695 279.564 107.243C279.837 108.36 279.451 109.587 278.48 110.335C277.167 111.349 275.279 111.105 274.267 109.793C274.222 109.736 269.654 103.955 261.513 99.9712C257.375 99.0581 253.079 98.5745 248.669 98.5745H217.822C214.348 98.5745 210.937 98.8749 207.625 99.4486C198.724 103.454 193.813 109.728 193.762 109.793C192.75 111.108 190.86 111.35 189.549 110.335C188.235 109.321 187.993 107.435 189.007 106.122C189.024 106.1 189.066 106.046 189.133 105.962C170.792 116.105 158.345 135.652 158.345 158.054V236.969L176.904 253.17ZM263.499 94.2614C276.596 97.304 288.195 104.287 296.981 113.89C294.666 108.476 288.72 99.4155 273.923 94.0482C265.721 91.0762 259.219 90.6407 254.306 91.2534C256.624 91.6979 259.084 92.3857 261.583 93.4159C262.238 93.6863 262.878 93.9686 263.499 94.2614ZM209.798 91.0026C205.504 91.0026 200.293 91.806 194.107 94.0482C181.974 98.4499 175.793 105.333 172.683 110.653C181.692 102.068 193.138 96.02 205.864 93.6622C206.057 93.5796 206.25 93.4985 206.447 93.4174C208.963 92.3797 211.438 91.6904 213.77 91.2459C212.546 91.0897 211.223 91.0026 209.798 91.0026ZM235.104 318.695H227.205C215.473 318.695 205.931 309.153 205.931 297.421V280.137C205.931 278.479 207.276 277.134 208.934 277.134H253.376C255.034 277.134 256.38 278.479 256.38 280.137V297.421C256.38 309.153 246.836 318.695 235.104 318.695ZM211.938 283.141V297.421C211.938 305.839 218.787 312.688 227.205 312.688H235.104C243.523 312.688 250.373 305.839 250.373 297.421V283.141H211.938ZM233.88 238.57C213.683 238.57 201.173 234 200.65 233.805C199.096 233.226 198.303 231.498 198.883 229.944C199.462 228.389 201.188 227.599 202.741 228.174C202.859 228.218 214.85 232.563 233.879 232.563C252.537 232.563 260.63 228.389 260.709 228.346C262.166 227.566 263.986 228.117 264.768 229.57C265.551 231.025 265.022 232.833 263.575 233.624C263.207 233.826 254.301 238.57 233.88 238.57ZM266.062 208.558C253.34 208.558 241.395 202.458 233.879 192.375C226.361 202.46 214.416 208.558 201.696 208.558C179.576 208.558 161.58 190.563 161.58 168.443C161.58 146.323 179.574 128.329 201.696 128.329C214.416 128.329 226.361 134.429 233.879 144.511C241.395 134.428 253.34 128.329 266.062 128.329C288.181 128.329 306.175 146.323 306.175 168.443C306.175 190.563 288.181 208.558 266.062 208.558ZM233.88 183.911C234.955 183.911 235.948 184.486 236.483 185.417C242.56 195.985 253.896 202.551 266.062 202.551C284.867 202.551 300.168 187.251 300.168 168.443C300.168 149.638 284.868 134.336 266.062 134.336C253.894 134.336 242.562 140.9 236.483 151.468C235.948 152.4 234.954 152.975 233.88 152.975C232.806 152.975 231.812 152.4 231.277 151.468C225.197 140.9 213.863 134.336 201.699 134.336C182.892 134.336 167.59 149.636 167.59 168.443C167.59 187.25 182.89 202.551 201.699 202.551C213.864 202.551 225.198 195.985 231.277 185.417C231.812 184.486 232.805 183.911 233.88 183.911ZM265.275 198.702C248.59 198.702 235.017 185.129 235.017 168.444C235.017 151.761 248.59 138.188 265.275 138.188C281.958 138.188 295.531 151.761 295.531 168.444C295.531 185.129 281.958 198.702 265.275 198.702ZM265.275 144.194C251.903 144.194 241.024 155.073 241.024 168.443C241.024 181.815 251.903 192.694 265.275 192.694C278.645 192.694 289.524 181.815 289.524 168.443C289.524 155.073 278.645 144.194 265.275 144.194ZM201.697 198.702C185.014 198.702 171.441 185.129 171.441 168.444C171.441 151.761 185.014 138.188 201.697 138.188C218.38 138.188 231.953 151.761 231.953 168.444C231.953 185.129 218.38 198.702 201.697 198.702ZM201.697 144.194C188.327 144.194 177.448 155.073 177.448 168.443C177.448 181.815 188.327 192.694 201.697 192.694C215.067 192.694 225.946 181.815 225.946 168.443C225.946 155.073 215.067 144.194 201.697 144.194ZM258.638 182.036C251.144 182.036 245.047 175.937 245.047 168.443C245.047 160.949 251.144 154.852 258.638 154.852C266.132 154.852 272.231 160.949 272.231 168.443C272.231 175.937 266.132 182.036 258.638 182.036ZM258.638 160.859C254.457 160.859 251.054 164.262 251.054 168.443C251.054 172.625 254.457 176.028 258.638 176.028C262.821 176.028 266.224 172.625 266.224 168.443C266.224 164.262 262.821 160.859 258.638 160.859ZM207.856 182.036C200.362 182.036 194.263 175.937 194.263 168.443C194.263 160.949 200.362 154.852 207.856 154.852C215.35 154.852 221.447 160.949 221.447 168.443C221.447 175.937 215.35 182.036 207.856 182.036ZM207.856 160.859C203.673 160.859 200.27 164.262 200.27 168.443C200.27 172.625 203.673 176.028 207.856 176.028C212.037 176.028 215.44 172.625 215.44 168.443C215.438 164.262 212.037 160.859 207.856 160.859Z" fill="#FF3E00"/>
<path fill-rule="evenodd" clip-rule="evenodd" d="M271.927 457.753C271.927 459.702 271.736 461.604 271.442 463.472C271.406 463.709 271.378 463.941 271.337 464.172C268.284 481.71 252.99 495.091 234.595 495.091C218.191 495.091 204.26 484.439 199.258 469.706L43.9237 380.031C28.5192 371.137 19.0359 354.697 19.0359 336.922V185.878C24.7895 187.827 30.9247 188.931 37.3375 188.931C43.0911 188.931 48.6422 188.058 53.8812 186.473V336.922C53.8812 342.236 56.7377 347.186 61.3521 349.847L206.256 433.508C213.107 425.51 223.256 420.416 234.595 420.416C246.93 420.416 257.846 426.447 264.653 435.693C264.774 435.86 264.901 436.022 265.023 436.19C265.497 436.867 265.948 437.555 266.381 438.266C266.549 438.538 266.717 438.804 266.879 439.082C267.26 439.735 267.613 440.406 267.955 441.083C268.14 441.447 268.313 441.811 268.481 442.181C268.776 442.811 269.047 443.447 269.307 444.095C269.493 444.558 269.655 445.021 269.822 445.488C270.031 446.078 270.232 446.674 270.406 447.275C270.58 447.854 270.707 448.432 270.852 449.004C270.984 449.547 271.123 450.085 271.228 450.635C271.372 451.358 271.465 452.086 271.569 452.821C271.62 453.266 271.707 453.688 271.748 454.128C271.857 455.324 271.927 456.527 271.927 457.753ZM462.963 131.684C462.963 142.885 457.99 152.923 450.149 159.77V336.922C450.149 354.697 440.671 371.137 425.261 380.031L291.807 457.077C291.656 444.471 287.395 432.865 280.329 423.463L407.839 349.847C412.447 347.186 415.304 342.236 415.304 336.922V167.536C399.731 163.048 388.294 148.691 388.294 131.684C388.294 123.404 391.041 115.772 395.62 109.578C395.683 109.48 395.759 109.382 395.834 109.284C396.695 108.138 397.621 107.034 398.609 105.993L398.743 105.848C400.79 103.715 403.08 101.841 405.578 100.239C405.838 100.072 406.109 99.9215 406.376 99.7539C407.365 99.1641 408.376 98.603 409.418 98.1002C409.724 97.9558 410.031 97.7993 410.343 97.6604C411.644 97.0706 412.985 96.5271 414.367 96.0993C414.373 96.0993 414.373 96.0993 414.373 96.0937C417.929 94.966 421.705 94.3475 425.631 94.3475C446.222 94.3475 462.963 111.093 462.963 131.684ZM19.0359 164.194C7.69074 157.781 0 145.621 0 131.684C0 111.093 16.7461 94.3475 37.3375 94.3475C42.6747 94.3475 47.7402 95.4975 52.3372 97.5215L209.702 6.6672C217.398 2.22047 226.003 0 234.59 0C243.188 0 251.787 2.22047 259.483 6.6672L393.723 84.1757C383.847 90.8373 376.197 100.517 371.999 111.857L242.06 36.846C239.794 35.5334 237.209 34.8452 234.59 34.8452C231.976 34.8452 229.397 35.5334 227.124 36.846L74.0736 125.214C74.4435 127.319 74.6694 129.47 74.6694 131.684C74.6694 147.748 64.4516 161.435 50.1919 166.692C50.0821 166.733 49.9665 166.779 49.8623 166.813C48.7232 167.212 47.5841 167.565 46.4102 167.859C46.1731 167.918 45.9419 167.987 45.7047 168.034C44.6292 168.282 43.5306 168.479 42.4261 168.634C42.1254 168.675 41.8305 168.733 41.524 168.768C40.1478 168.923 38.7542 169.022 37.3375 169.022C35.8167 169.022 34.3191 168.9 32.8387 168.722C32.4456 168.675 32.0581 168.606 31.6591 168.542C30.5257 168.369 29.4155 168.149 28.311 167.872C27.9756 167.784 27.6344 167.709 27.2933 167.611C24.3847 166.79 21.6149 165.651 19.0359 164.194Z" fill="#FF3E00"/>
</svg>
